# xmcd
#
# Track frame offsets:
#	150
#	10022
#	21823
#	37110
#	54692
#	68155
#	88046
#	99510
#	112768
#	123905
#	139713
#	152912
#	169931
#	182074
#	197869
#	211588
#	225614
#
# Disc length: 3154 seconds
# Revision: 0
# Processed by: cddbd v1.5.2PL0 Copyright (c) Steve Scherf et al.
# Submitted via: dBpowerAMP V12.0
#
DISCID=de0c5011
DTITLE=Windy Hill - Bluegrass Sounds from California
DYEAR=2016
DGENRE=Bluegrass
TTITLE0=Take a Look Before You Leap
TTITLE1=Why Do You Do the Things That You Do?
TTITLE2=Happy Bunnies Jump Up and Down
TTITLE3=Living Like The Lonely Do
TTITLE4=Waiting For You to Come Home
TTITLE5=Junebug
TTITLE6=City Slicker Darlin'
TTITLE7=Wakefield-Osborne Waltz
TTITLE8=My Room is Crowded
TTITLE9=Pretty Bird
TTITLE10=Springfield Connection 745
TTITLE11=You Should Ask Me
TTITLE12=Hear the Whistle Blow
TTITLE13=I Wonder Where You Are Tonight
TTITLE14=Run on Banjo
TTITLE15=The Wedding Waltz
TTITLE16=Don't Laugh
EXTD=
EXTT0=
EXTT1=
EXTT2=
EXTT3=
EXTT4=
EXTT5=
EXTT6=
EXTT7=
EXTT8=
EXTT9=
EXTT10=
EXTT11=
EXTT12=
EXTT13=
EXTT14=
EXTT15=
EXTT16=
PLAYORDER=
